<svg version="1.1" id="Layer_1" xmlns="http://www.w3.org/2000/svg" xmlns:xlink="http://www.w3.org/1999/xlink" x="0" y="0" viewBox="0 0 87.3 87.3" xml:space="preserve"><style>.st2{fill:#cc9a71}.st3{fill:#8e5c33}.st4{fill:#00222d}.st5{fill:#999c9d}.st6{fill:#2264a7}</style><linearGradient id="SVGID_1_" gradientUnits="userSpaceOnUse" x1="13.934" y1="-707.7" x2="73.466" y2="-707.7" gradientTransform="matrix(1 0 0 -1 0 -664)"><stop offset="0" stop-color="#90278e"/><stop offset="1" stop-color="#25a9e0"/></linearGradient><circle cx="43.7" cy="43.7" r="28.8" fill="#fff" stroke="url(#SVGID_1_)" stroke-width="1.932" stroke-miterlimit="10"/><defs><path id="SVGID_2_" d="M49.3 6.9C57.9 11.2 71 36.7 71 46.3c0 14-12.3 25.4-27.4 25.4S16.2 60.3 16.2 46.3c0-7.3 11.6-14.1 18.1-23.6 3.6-5.3 1.1-16.1 5.1-17.2 2.5-.8 6.1-.6 9.9 1.4z"/></defs><clipPath id="SVGID_3_"><use xlink:href="#SVGID_2_" overflow="visible"/></clipPath><g clip-path="url(#SVGID_3_)"><path class="st2" d="M61.4 67.1zM68.3 52.5v-.7.7zM64.2 54.2s.6 1 1.2 2.1c.6 1.2.2 10.3.2 10.3l-4.3.4 4.8-.3 1.3-1.8c.6-3.7 1.1-7.9 1-10.5 0-.6-.1-1.3-.1-1.9 0 0-.7.7-1.2 1.1-.5.3-2.9.6-2.9.6z"/><path class="st3" d="M67.2 52.3s-.4.5-1.1.5l-5.9-.5s0-.1-.1-.2c0 0-.1-.1-.1-.2v.1c.2.6.6 1.8.6 2.2 0 .6-.4.8-.4 3 0 1.2 1.2 9.8 1.2 9.9l4.3-.4s.4-9.2-.2-10.3c-.6-1.2-1.2-2.1-1.2-2.1s2.4-.3 2.9-.6 1.2-1.1 1.2-1.1v-.7l-1.2.4z"/><path class="st4" d="M67.4 70.5c-.6.1-2.6.3-4 .3h-2.9l.5.3 1 3.8c.5-.2 1.9-.2 3-.1 0 0 1.6.1 1.8.3 0 0 0 .1.1.1l.1-1.1c-.3.1-.9.5-2.4.6h-.4c-1.3 0-2.4-.4-2.5-.5V74s1.5.6 2.9.5c1.4-.1 2.2-.6 2.4-.6v.1l.4-3.2.2-.2-.2-.1zm-.3 2.5c-.3.1-1 .5-2.5.6h-.4c-1.4 0-2.6-.4-2.6-.5v-.2s1.6.6 3.1.5c1.5-.1 2.4-.6 2.6-.6l-.2.2zm.2-1.3c-.3.1-1.1.5-2.8.6h-.4c-1.5 0-2.9-.4-2.9-.5l-.1-.2s1.7.6 3.4.5c1.6-.1 2.6-.6 2.8-.6v.2z"/><path class="st3" d="M67.2 80.4c-.1-.6-.2-2.7-.7-3.6-.5-.9-1.5-2-1.5-2-1.2-.1-2.6-.1-3 .1 0 0-.1 0-.1.1-.4.4-1 1.9-1 1.9s-.1 1.1-.5 1.6-2.2.8-2.3 1v.1c.1 0 .4.2.5.2.1 0 1.4-.2 1.5-.3.1-.1 1.2-1.4 1.2-1.4l.2.5s-.8.9-1 1c-.2.1-1.9.5-1.9.5s-.5.2-.2.7l2.7-.6 1-1.1.5.2s-.8 1.1-1 1.3c-.2.1-2.2.6-2.2.6-.5.1-.8-.1-.9-.2.3.4.9.3.9.3s-.1.2-.1.4c0 0 1.6-.2 2.2-.4.6-.2 1.3-1.1 1.3-1.1l.3-.8.4.4s-.6 1.1-.6 1.3c0 0 0-.1.1-.1-.1.4-.3.9-.5 1-1.1.2-1 1-.9 1.1 0 0 1.5-.4 1.8-.9.4-.5.8-2.6.8-2.6s-1.2-.2-2-.7c-.8-.4-1.2-1.3-1.2-1.3l.5-1.8 1.8 1s.4.9 1 1.3 1.6.2 1.6.2.7.7.7 1.2c0 .6.4 1.2.3 1.4 0 .3 1.5.5 1.5.5s-1.1-.4-1.2-1z"/><path class="st3" d="M61.5 83c.1.1 1.1.1 1.8-.1-.6.1-1.4.2-1.8.1z"/><path class="st2" d="M65 74.7s1 1.1 1.5 2c.5.9.5 3 .7 3.6.1.6 1.3 1 1.3 1s.1-3.3-.2-3.6c-.3-.4-1.1-2.2-1.4-2.6l-.1-.1c-.2-.2-1.8-.3-1.8-.3zM64.3 78c-.6-.4-1-1.3-1-1.3l-1.8-1-.5 1.8s.4.9 1.2 1.3c.8.4 2 .7 2 .7s-.5 2.1-.8 2.6c-.4.4-1.9.9-1.9.9.3.1 1.2 0 1.8-.1.3-.1.5-.1.6-.2.2-.2 1.5-2.7 1.5-2.9 0-.2.5-1.7.5-1.7s-1 .3-1.6-.1z"/><path class="st2" d="M59.3 81.1s2.1-.5 2.2-.6c.2-.1 1-1.3 1-1.3l-.5-.1-1 1.1-2.7.6.1.1c.1.1.4.3.9.2z"/><path class="st2" d="M63.5 79.7l-.4-.4-.3.8s-.6.9-1.3 1.1c-.6.2-2.2.4-2.2.4s0 .3.4.4c.1 0 1.8-.3 2-.3.2 0 1.2-.4 1.2-.6 0-.3.6-1.4.6-1.4zM61.4 78.6l-.2-.5s-1.1 1.3-1.2 1.4c-.1.1-1.4.3-1.5.3-.1 0-.4-.2-.5-.2 0 0 .1.4.4.5 0 0 1.8-.3 1.9-.5.3 0 1.1-1 1.1-1z"/><path class="st5" d="M52.2 77.4v.2l.1-.5c-.1.1-.1.2-.1.3zM55.1 90l-2-.2v1l1.9.1zM50.8 95.6c0 .5-.1 1.4-.2 2.3v.1c-.1 1-.2 1.8-.2 1.9 0 .1.1.1.1.2h4c.1-.4.8-4.1.7-5.5h-3.4c-.2.1-1 .6-1 1zM50.7 101.5c-.5 1.6-.5 2.5-.7 3.2-.1.4-.1 2.7-.1 5.5l3.4.3-.8 9h-1.4l2 .1c.3-2.4 1.2-11.4 1.3-13.5.2-2.4-.9-4.8-.9-4.8l-2.8.2zM54.5 100.1l-.9 1.3s.8-1.1.9-1.3zM55.6 91.1l-.3.2c.2 0 .3-.1.3-.2z"/><path class="st5" d="M52.4 119.4l.8-8.8-3.2-.3c.1 2.9.2 6.3.2 9.1h2.2zM55.1 94.5l.1.1c0-.1 0-.1-.1-.1zM52.3 77.1l.5 9.3 3.7.4v.2l-3.9-.4-.5-8.7c-.2 2.2-.1 8.5-.1 12.9l1 .1v-1.2l2.3.3-.1 1h.5c.9-3.9 2-9.9 2-11.1 0-1.7-1.7-5.6-1.7-5.6-.2-.4-.6-.7-1-.9h-.4c-.2.5-1.9 2-2.3 3.7z"/><path class="st4" d="M49.6 91.1l.1-9.3-3.7-.3.6 10.8zM50.4 99.9s.1-.9.2-1.9l-4.6.7v-.1c0 .4.1.7.2 1v-.1l4.2-.3v.2l-4.1.3c0 .1.1.1.1.2l.3.8c-.7 2.3-2.5 6-2.5 6l3.1 16.8 1.5.5.2-.9v-.4c0-.4.2-.8.4-1l.5-1.7-.9 2.2-1.3-10 2.2-2.1h.2c-.1-2.8-.1-5.1.1-5.5.2-.6.1-1.6.7-3.2h.1l2.9-.1.9-1.3h-4c-.3 0-.4-.1-.4-.1z"/><path class="st4" d="M50.2 119.4c-.1-2.8-.2-6.2-.2-9.1h-.1l-2.1 2 1.2 9.3.9-2.2h.3zM54.5 94.1l-2.8-.1-5.4 1.8-.3.8h-.1v1.1l4.8-1.8.1.2L46 98v-.1.6l4.6-.7v.1c.1-.9.2-1.8.2-2.3 0-.4.8-.9 1-1h3.4l-.3-.6-.4.1z"/><path class="st4" d="M50.8 96.2l-.1-.2-4.8 1.8.1.2zM50.6 98v-.2l-4.6.7v.2zM50.4 99.4v-.2l-4.2.3v.2z"/><path class="st6" d="M52.8 121.1l2.2 1.3 3.8-.5-1-.2-1-.8v.1zM56.7 123.3l1 .6 3.7-.3-.5-.8v.1zM55.3 122.5l1.1.7 4.4-.5-.5-.6-1.2-.2v.1zM50 119.6l2.5 1.3 4.2-.1-1.2-1-4.3-.2z"/><path class="st4" d="M50.9 122.6c0 .7-.5 1.3-1 1.4h-.1.4c.6 0 1-.6 1-1.4 0-.7-.4-1.3-1-1.2h-.4-.1.1c.7 0 1.1.5 1.1 1.2z"/><path class="st6" d="M49.8 124c.6 0 1.1-.6 1.1-1.4 0-.7-.4-1.3-1-1.2h-.1c-.2 0-.3.2-.5.3-.2.3-.4.6-.4 1v.4c.1.5.5.9.9.9z"/><path class="st4" d="M56.8 126.1l-5.6-1.4v.1l-.2-.1-2.3-.6 1.1 1.7 2 .3.8-.5.6.7 3.7.4 4.1-.6v-.6z"/><path class="st2" d="M54.9 92.2s-1.3-.2-2.4-.2c-1.1 0-1 0-1.3.6-.2.5.5 1.4.5 1.4l2.8.1.6-2.5-.2.6zM55.1 91.5l-4.2-.3 4.2.3z"/><path class="st4" d="M55.2 91.1L53 91v-.1l-1-.1c0-4.4-.1-10.6.1-12.9V77.6v-.2c0-.1 0-.2.1-.3.5-1.6 2.2-3.2 2.4-3.5-.6 0-1.3.2-1.9.7-.8.7-.4 3.2-1.3 4.2-1.2 1.2-3.2 1.4-4.6 1.3h.1c-.4.2-1.3.2-2.5.2-.2.4-.3.7-.3.8-.2.4 1.2 9.2 1.1 12.2 0 .5.5.2.5.2l5.1-1.9h.1l4.2.3.6-.4-.5-.1zm-8.8 1.5l-.7-11.3 4.1.4-.1 9.6-3.3 1.3z"/><path class="st3" d="M51.7 94s-.8-.9-.5-1.4c.3-.5.2-.6 1.3-.6s2.4.2 2.4.2l.2-.6-4.3-.3-5.1 1.9.6 2.6 5.4-1.8z"/><path class="st4" d="M49.9 81.7l-4.1-.4.7 11.3 3.4-1.3v-9.6zm-.2.1l-.1 9.3-3 1.2-.6-10.8 3.7.3zM69.3 51.3v.1-.1zM60.1 52.1c.1-.1.8-1.2 2-2.4l-1-1.9.1-.2.4.8-.3-.9.1-.3c.4 1.1.7 2 .9 2.4.9-.9 2.1-1.7 3.3-2 .2 0 .4-.1.5-.1 0-2.3-.5-6.1-1.2-8.4l3.2-.6 1-1.2-5 1s0-.2-.9-1.1c-.6-.6-1.5-1.2-2.5-1.8-.2-.1-.3-.2-.3-.2l.3 2.1c.5 3.2 1.3 9.1 1 9.5-.1.1-.1.2-.2.3l-.1.2c0 .1-.1.1-.1.2l-1.6 2.3c-.1.2-.4.3-.6.3 0 0-5.9-.3-6.1-.3l-1.1-.1-5 1.1c-1.4.3-7.7-.7-7.7-.7s.4-3.6-.8-6.9c-1.1-3.3-2.8-6.4-2.8-6.4l1.3-.8v-.1h.2L28 37.1s-.6 2.4-.7 2.9c-.2.5-3.3 4.7-3.3 4.7l-7-.2 2 1c-.2.9-.5 1.9-.7 2.8.2-.1 1.2-1 2.5-1.6l.2-1.2h.3c-.2.7-.2 1-.3 1.1.6-.3 1.3-.5 1.9-.6 0-.2.1-.4.1-.6l1.2-.1 3.8-4 .8-2.9 4.5-.5 1.5-.9c-.3.2-.8.7-1 1.5 0 0 1.5 4.4 2.3 6.8.8 2.4.9 3.6.9 3.6l-1.5.5v.2h.1-.1l.3 3.8-6.2 1.8c.1.3.2.7.2.9l6.7-1.5V53l2.8-.9-.1-1.5h.2l.1 1.6-2.8.9v1.6l-6.9 1.5c.1.3.3.6.4.7l.7.6 9.2-1.9V55s10.8-2.2 11.3-2.2c.5.1 6.4 1.6 6.4 1.6l.6-.4s.8-1.1 1.2-2.1v-.1c.4.2.4.2.5.3zM44.9 51H46l.5 1.4h-1.1l-.5-1.4zm-.8-.1l.8 1.7h-1.1l-1-1.8 1.3.1zm-3.5-.4l1.5.3.8 2h-1.3l-1-2.3zm3.7 2.7c2.4-.5 5.9-1.1 5.9-1.1l-5.9 1.1zm12-.9l-1-.2.4-1.7h1.4l-.8 1.9zm-2.4-.1l.2.3-.2-.3zm4 .2h-1.1l.7-1.9h1.2l-.8 1.9z"/><path class="st4" d="M60.2 52.2l-.1-.2c0 .2.1.2.1.2zM66.1 52.7s-.1-2.4-.1-5c-.2 0-.3 0-.5.1-2.7.7-5.2 4.3-5.3 4.5l5.9.4z"/><path class="st5" d="M69.4 49.7s-.6-6.1-1-8.3c-.1-.7-.2-1.6-.5-2.6l-.7.6c.1.3.6 1.3.7 3.9.1 2.8 0 4.9 0 5.1.9 1.1 1.3 2.8 1.3 2.9l.2-1.6z"/><path class="st5" d="M67.2 48c-.4-.2-.8-.3-1.2-.3 0 2.6.1 5 .1 5 .7.1 1.1-.5 1.1-.5l2.1-.9h-.1c0 .1-.6-2.4-2-3.3z"/><path class="st5" d="M64.8 39.1c.7 2.3 1.2 6.1 1.2 8.4.4 0 .9.1 1.3.3.2.1.4.3.6.5 0-.6.1-2.5 0-4.9-.1-3-.7-3.9-.7-3.9v-.1l.9-.8v-.1l-3.3.6z"/><path class="st4" d="M61 47.4l-.1.1.1-.1zM61.1 47.2l.1-.2c0 .1 0 .1-.1.2zM45.2 72.1l.2.5.9 1.6s0-.3.1-.9V73v-1.9c0-1 0-2.3-.1-4 0-.6-.1-1.2-.1-1.9V65c-.1-1-.2-2.1-.3-3v-.2c-.2-1.2-.3-2.3-.5-3.3v-.2l-.5-3-.4 11h-3.2l-6-2.3.1.7h-.2l-1.2 5 7.9 2.1c1 .2 2.2.3 3.3.3z"/><path class="st4" d="M47 79.8s-.1 0 0 0c-.4-.2-1.4-1-1-3.8.1-.5-2.5-1.2-3.1-1.6-.4-.3-.8-.9-.9-1.4-.1-.5 0-1 0-1l-8-2.3s-1.4 2.6-1 5.1l1.6-2.8 5.6 1 .6.3c.6.2 1 .5 1.3 1.1 0 0 1.4 3.5 1.6 5.5h.8c1.1.1 2 .1 2.5-.1zM35.7 35.2l.3.1c-.1-.1-.2-.1-.3-.1l.4.2c4.9 1.5 13.6 4.2 14.9 4.2 1.5 0 6.6-2.9 8.4-4 0 0 .6-.4.7-.4l-1.2-.6c-.8-.4-1.6-.7-2.4-1l1.2 2.6-4.4-1.2-.1-.2c-.4.3-.9.7-1.5.9l3.2 1.6-.2.1-3.1-1.6v-.1c-1 .4-2.5.7-4.4.7h-.9l-.8 1.1-7.1-1.8 2-1c-1.2-.8-1.7-1.5-1.7-1.5l.9-1.8c-2.9.3-5.6.8-7.4 1.2.1.1.2.1.2.1.1.5 2 1.7 3.3 2.5zM50 36.3l1.7 2.1h-.2l-1.6-2 .1-.1zm-1.4.2l.6 1.8H49l-.6-1.7.2-.1zm-1.6 0h.2l-.3 1.4h-.2l.3-1.4z"/><path class="st4" d="M53.3 34.7l.1.1 4 1.2-1.1-2.3-2.2-.2c0 .1-.2.6-.8 1.2zM38.9 35.8l6.4 1.7.7-1c-2.6-.2-4.4-.8-5.5-1.5l-1.6.8zM54.2 33.3l1.8.2c-.6-.2-1.3-.5-2.2-.7l.4.5zM53.6 67.5l-.1.2-.8 2.9-.1.2-.1.3c2.5-.6 4.2-1.2 4.2-1.2L55 66.2l.1-.8-1 .1-.5 2z"/><path class="st6" d="M50.1 52.1s-3.5.6-5.9 1.1l5.9-1.1zM52.6 49.6l-1.1-.1 1.1.1zM51.7 52.9c-.5-.1-11.3 2.1-11.3 2.1v.4c.3 1 .7 2.4 1 4.2.7 3.9-.3 6.5-.3 6.5h3.2l.4-11 .5 3c.2-.1 3.6-2.4 6.9-2 3.3.4 4 1.4 4 1.5v.2s-.7-1.2-4-1.5c-3.2-.3-6.7 1.9-6.8 2 .2 1 .3 2.1.5 3.3.2-.1 2.7-2.1 5.3-2.1h.1c2.6 0 4.2 1.6 4.2 1.6l-.1.2s-1.6-1.6-4.2-1.6H51c-2.5 0-5.1 2-5.2 2.1l.3 3s2.5-2.1 5.1-2c2.7.1 3.1 1.5 3.2 1.5l-.1.2s-.6-1.5-3.1-1.6H51c-2.5 0-4.8 2-4.8 2 .1.6.1 1.3.1 1.9.1 1.6.1 3 .1 4 .1-.1 1.8-1.9 3.6-2 1.8 0 2.7 1.5 2.7 1.5l.8-2.9s-.8-1.4-2.8-1.6h-.2c-1.9 0-4.1 1.9-4.2 1.9v-.2c.1-.1 2.2-1.9 4.2-1.9h.2c2 .2 2.7 1.4 2.8 1.6l.6-2.1 1.4-.1s1.4-3.4 2.6-9.2l-.1-1.7c.1.3-5.7-1.2-6.3-1.2zM53.9 52.2l.3.3-.2-.3z"/><path class="st4" d="M41.2 66.2s1-2.6.3-6.5c-.3-1.8-.7-3.2-1-4.2v.2l-9.2 1.9c1.7 3.5 3.3 6.1 3.3 6.1l6.6 2.5zM46.3 52.2l-.4-1h-.8l.4 1zM42.7 52.6l-.7-1.7-1.1-.2.9 1.9zM35.8 53.3l-.2-3.6-4.6 2.2c-.7 1.4-1.3 2.3-1.3 2.3s-4.5-3.5-6.2-3.7c-.4 0-1 0-1.7.1.1-.5.3-1.7.8-4.1 0-.2.1-.4.1-.5-2.1.3-4.4 2.3-4.7 2.4-.5 1.8-.9 3.2-.9 3.2h.2l1.6 1.8v-1.3s3.8-.6 4.9-.4c.4.1 1 .4 1.8.8 1.5.9 3.3 2.1 3.3 2.1l.6-.3c0 .2.1.5.1.7l6.2-1.7zM57.1 52.2h.7l.7-1.5h-.8zM55.5 52l.7.1.6-1.5-.9.1z"/><path class="st6" d="M40.3 48.3c1.1 1.3 10.1.2 11.3.1.2-1.6.4-4.2.4-4.5 0-.4-1.6-4.2-1.6-4.2.5.2 1.1-.1 1.1-.1s.9 3.2 1 3.6c.1.4 0 3.6 0 5.3.2 0 5.7.2 6.7-.3s1.9-1.8 1.9-2.2c0-.4-1.8-10.4-1.8-10.5-1.9 1.1-6.9 4-8.4 4-1.3 0-10.1-2.7-14.9-4.2l.6.4c.2.2 2.5 11.2 3.7 12.6zm19.4-1.9L57 44.3l.3-.7 3 2.3-.6.5zm-14.9-1.7l-4.1 2.4-.1-.9 4.2-2.1v.6z"/><path class="st6" d="M57.4 43.9l-.2.3 2.5 2 .3-.3zM35.7 35.2c.1 0 .2 0 .3.1l-.3-.1z"/><path class="st6" d="M60.1 35.2c-.1 0-.3.2-.6.3.1.4 1.8 10.1 1.8 10.6s-1 1.9-2 2.4c-.6.3-2.7.3-4.4.3h-2.4v.9c.2 0 6.1.3 6.1.3.2 0 .5-.1.6-.3 0 0 2-2.8 2.1-2.9.3-.3-.5-6.2-1-9.5l-.2-2.1zM44.6 44.6v-.2l-3.8 1.9.1.5z"/><path class="st6" d="M44 49.1c-1.8 0-3.4-.2-3.9-.7-1.1-1.4-3.3-11.5-3.5-12.5l-1.3.8s1.7 3.1 2.8 6.4c1.1 3.3.8 6.9.8 6.9s6.3 1 7.7.7l5-1.1.1-1c-.9.1-4.7.5-7.7.5zM52.6 70.8s-1-1.5-2.6-1.5c-1.7 0-3.6 2-3.6 2V73c.1-.1 1.5-1.4 3.2-1.4h.1c1.9.1 2.3 1.3 2.3 1.3v.2c0-.1-.5-1.3-2.3-1.3h-.1c-1.8 0-3.2 1.4-3.3 1.5 0 .6-.1.9-.1.9l-.9-1.6-.2-.5c-1.1 0-2.2-.1-3.3-.3 0 0-.1.5 0 1s.6 1.1.9 1.4c.6.5 3.2 1.2 3.1 1.6-.4 2.8.6 3.6.9 3.8 1.4.2 3.4-.1 4.6-1.3.9-.9.6-3.5 1.3-4.2.6-.5 1.2-.6 1.9-.7h.4c.8 0 1.5-.1 1.7-1v-2.7s-1.7.7-4.2 1.2l.2-.1z"/><path class="st2" d="M23.1 79s-.1 0 0 0c-.1.1 0 .1 0 0 .1.1.1.3 0 .3 0 .1-.1.1-.2.1h-.1s-.1 0-.1-.1c-.3.5-.6 1.5-.9 2.1l.4.3.5-.1.4.4.5-.2.3.4h.5s-.2.7 0 .9c.2.2 1.4 2.6 1.4 2.6l2 .6s-.1-.7-.4-.9c-.3-.3-.6-.6-.9-1.3-.3-.7-1-1.6-.7-2 .3-.5 1.1-1.7 1.2-1.6 0 .1.3 3.1.3 3.1s.7.1.9.1c.2-.1 1.2-4.1.9-4.3-.2-.2-1.1-1.3-1.3-1.7-.2.1-.5.4-1.2.5-.1.3-1.1.8-3.5.8z"/><path class="st3" d="M23 79s.1 0 0 0c2.4 0 3.4-.6 3.8-.9-.2 0-.4.1-.7.1-1.8.2-2.9-.3-3.3-.6l-.4.9c.3.3.5.5.6.5zM23.8 85.6s-.1 0-.1-.1l.1.1zM24.4 85.3l.1.1c-.1 0-.1-.1-.1-.1z"/><path class="st3" d="M24.6 82.2h-.5l-.3-.4-.5.2-.4-.4-.5.1-.4-.3c.2-.6.6-1.6.9-2.1-.1-.1-.3-.2-.5-.4l-1 2v.1c.1.3.2 1.2.5 2-.1-.4-.1-.8-.1-.8s.8 1.8.9 2.1c.1.3.4.7.4.7.2.2.5.3.6.4-.2-.2-.4-.5-.5-.7-.1-.4 0-1.9 0-1.9s.4 1.5.7 2c.3.6.3.5.3.5l.2-.1c0-.1-.5-2.3-.5-2.3l1.1 1.8c.4.6.8.9.9 1l.2-.2s-1.2-2.4-1.4-2.6c-.3 0-.1-.7-.1-.7z"/><path class="st2" d="M24.9 84.9l-1.1-1.8s.5 2.2.5 2.3l.1.1c.2.2.5.4.8.5.4.1.6-.1.6-.1.1-.1.1-.2.1-.2l-.2.2c0-.1-.4-.4-.8-1zM23.8 84.9c-.3-.6-.7-2-.7-2s-.1 1.5 0 1.9c.1.3.3.6.5.7 0 0 .1 0 .1.1l.1.1c.3.1.3-.2.3-.2l-.3-.6zM22.5 84.4c-.1-.3-.9-2.1-.9-2.1s0 .3.1.8.2 1.1.3 1.3c.2.4 1 .7 1 .7s-.4-.4-.5-.7zM19.2 59.6c0 .1 0 .1 0 0 0 .1 0 .1 0 0zM23.9 53.1c-.1.8.1 1.4.3 1.9l.8 2s-2.5.6-3.6 3c-.4.9-.2 3.1.2 5.6l4.4-.8 1.3.4-.2 3.1.8.1c.1-1.3.2-2.5.2-3.6.3-5.4-.1-6.6-.6-7.4-.4-.6.7-.8 1.5-2.7 0 0-1.8-1.3-3.3-2.1-.9-.3-1.8-.3-1.8.5z"/><path class="st3" d="M21.6 65.6c-.4-2.5-.5-4.7-.2-5.6 1-2.5 3.6-3 3.6-3l-.8-2c-.2-.5-.4-1.2-.3-1.9.1-.8.9-.9 1.9-.7-.8-.4-1.5-.7-1.8-.8-1.1-.2-4.9.4-4.9.4v1.3l-.1 3.8s-.4 1.4-.4 1.8c0 .4.6.5.7.7 0 .4 0 2.4.4 4.4.1.4.2 1 .4 1.8l1.5-.2z"/><path class="st5" d="M29.7 40.1c0 .4.1 2.2-.3 4.5-.4 2.5-.7 4.1-.8 4.4 1.4 1.2 2.5 2.4 2.6 2.5 1.3-2.8 3-7.5 2.4-12.1l-3.9.7z"/><path class="st5" d="M24.1 45.9c1.2.3 2.9 1.7 4.3 3 .1-.5.4-2 .8-4.2.4-2.5.3-4.5.3-4.5v-.1l4.1-.8c-.1-.5-.2-.9-.3-1.4l-4.5.5-.8 2.8-3.8 4H23c0 .2-.1.4-.1.6.4 0 .8 0 1.2.1z"/><path class="st5" d="M22.7 46.6c-.5 2.4-.7 3.7-.8 4.1.7-.1 1.3-.2 1.7-.1 1.7.2 6.2 3.7 6.2 3.7s.6-.9 1.3-2.3c.1-.1.1-.2.2-.3v.1s-4.8-5-7.1-5.6c-.4-.1-.8-.1-1.2 0-.2 0-.3.2-.3.4z"/><path class="st4" d="M25.8 77.5h-.4c-1.3 0-2.8-.6-2.8-.6v-.1l.2.8s.1 0 .2.1c.4.2 1.5.7 3.3.6.3 0 .5-.1.7-.1.6-.1 1-.4 1.2-.5l.1-.1.1-1.3c-.3 0-1.2 1-2.6 1.2z"/><path class="st4" d="M25.3 71.9L26 65l1.2.2-1.2-.4-6.4 1.2-.3.3 1 3.3.2-.2c-.1-.2-.1-.4-.1-.6 0-.7.5-1.2 1-1.2.6 0 1 .5 1 1.2s-.5 1.2-1 1.2c-.3 0-.5-.1-.7-.3l-.3.3.8 2.6s2.4.8 4.2.6c1.8-.2 3.1-1.2 3.2-1.3v.2c-.1 0-1.3 1.1-3.1 1.2H25c-1.7 0-3.5-.6-3.6-.6l.5 1.9s2.2.8 3.7.6c1.6-.2 2.8-1.2 2.9-1.3v.2c-.1 0-1.2 1.1-2.8 1.2h-.5c-1.5 0-3.1-.6-3.2-.6l.5 1.9s1.9.8 3.3.6c1.4-.2 2.4-1.2 2.5-1.3l.4-4.6-3.4.6z"/><path class="st5" d="M27.2 68.7l-.1-.4.2-3.1L26 65l-.7 6.9 3.3-.5.4-2.6z"/><path class="st4" d="M27.2 68.7l1.8.1.1-.4-2-.1z"/><path class="st5" d="M54.2 33.5l-.4-.6-.8 1 .5.9c.4-.7.6-1.2.7-1.3zM40.3 34.9l-.2-1.2 5.9 1.8.2 1h.9c2 0 3.4-.3 4.4-.7v-.1h.1c.7-.3 1.2-.6 1.5-.9l-.5-1 .2-.2c-.8.7-2.6 1.5-6.4 1.3-5.6-.4-7-2.3-6.9-3.6l-1 2c.1.1.6.8 1.8 1.6zM53.4 32.7c0 .1 0 .3-.2.5l.5-.6-.5-.7c.1.3.2.5.2.8z"/><path class="st5" d="M40.4 33.9l.1 1c1.2.7 2.9 1.4 5.5 1.5l-.2-.8-5.4-1.7z"/><path class="st4" d="M46.5 34.9c3.8.3 5.6-.5 6.4-1.3l.4-.4c.1-.2.2-.4.2-.5 0-.3-.1-.5-.2-.8-.1-.3-.4-.6-.6-.7 0 0-.1 0-.3-.1l.3 1.3s-.1.8-.9 1.2c-.1 0-.1.1-.2.1h-.1-.1c-.5.2-2.2.8-3.6.6-.8-.1-2.2-.3-2.2-.3-1.9-.3-3.6-1.3-3.6-1.3l-1.8-.9.4-1.6c-.4.3-.9.9-1 1.1-.1 1.3 1.3 3.2 6.9 3.6z"/><path class="st3" d="M43 28.7h.3c-.1-.3-.2-.9-.1-1.6 0-.3.2-.6.3-.9l-.3-.6c-.2.3-.5.8-.5 1.3 0 .8.2 1.5.3 1.8zM45.9 29.6c.1.4.1.8.2.9 0 0 1.5 2.5 1.9 2.7.2.1.5.2.9.3-.9-.9-1.8-3-1.8-3s2.5 2 3 1.5 1.4-1.5 1.4-1.5.1 1.3.2 1.9l.4-1.7c0-.2-.1-.4-.1-.5v-.5c-.3.1-.7.2-1.2.2-1.4.2-4-.1-4.9-.3z"/><path class="st3" d="M40.1 31.8l1.8.9s1.7 1 3.6 1.3c0 0-.6-3.3-.4-4.3 0-.2.1-.4.1-.7l-1.4-2.6c-.1.2-.2.5-.3.8-.1.6.1 1.1.2 1.4h.3l.2 1.4-.2 2.2-.5.1v-.1l-1.9-.4.8-2.9.2-.2h.1v-.1s-.3-1-.1-2c.1-.5.4-1.1.6-1.4L41.3 22l-.7-.7-.2.2c.4 1.7 1.3 4.6 1.1 5.3-.1.5-1.4 5-1.4 5z"/><path class="st4" d="M39 16.5c1 0 1.8 1.2 1.8 2.6 0 .5-.1 1-.3 1.4.1.1.2.3.4.4.3-.4.5-1 .5-1.7h-.6s.2-.4 0-1.1c-.2-.7-.5-1.1-.5-1.1l.4-.1c-.2-.2-.5-.4-.9-.4 1.1-1.4 4.1-3.5 4.1-3.5l-.2 3.4h.3l.3-2.4.3-.4s.1 0 .1.1c.1-.1.1-.2.1-.4h.2c.1-.1.1-.2.2-.2s.2 0 .2-.1c.1-.1.1-.2.2-.3.1 0 .2.1.3.1.1 0 .2-.1.2-.1.1 0 .4 0 .5.1.1-.2.2.1.3 0 .2 0 .1-.2.2-.2.2-.1.4 0 .6 0l.1-.1c.1 0 .1.1.2.1s.1-.1.1-.1c.1 0 .1.1.2.1.2 0 .6.1.7 0h.1c.1.1.3.1.4.1.1 0 .1-.1.2 0 .1 0 .1.1.2.2.1 0 .2-.1.3-.1.1 0 .2.2.3 0h.1c.1.1.2 0 .3 0 .1 0 .1.2.2.2s.2-.1.3-.2h.1c.1.2.2.2.4 0 .1.2.2.2.4.1.2.2.3.2.7.3.1 0 .4.2.5.2 0 0 .6.6.7.6 0 0-.4-.9.1-1.5.5-.5 1.3-.3 1.3-.3s-.5-1.1-1.4-.6c-.2.4-.2.7-.2.7s.1-.9.4-1.1c.3-.2.4-.3.4-.3s-.6-.1-.9.2c-.3.3-.4.8-.4.8v-1c0-.2.3-.6.3-.6s-.3.1-.7.6c0-.5-.3-.9-.4-1.1-.3-.3-.7-.7-1.2-.8.2.2.4.4.5.6-.2-.4-.7-.8-1.1-1-.7-.5-.8-.6-1.5-.6.5.2.5.5 1 .6-.2 0-.4-.1-.6-.2-.3-.1-.5-.2-.8-.4-.7-.3-1.5-.7-2.3-.5.2 0 .4 0 .6.1.1 0 .3.1.4.2h-.4c-.4-.1-.9-.2-1.3-.1-.5 0-1.2.1-1.5.5h-.4c-.6.1-1.6.3-1.9.9.3-.1.5-.2.8-.2-.1 0-.2.1-.3.1-.4.1-.7.2-1 .3-.2.1-.5.1-.8.3-.2.1-.2.2-.3.3-.2.2-.5.4-.6.7.1-.2.4-.3.7-.3h-.1c-.1 0-.1.1-.2.1-.2.1-.3.2-.5.3-.6.5-.9 1.2-.9 1.8h-.5c-.5.1-.6.4-.6.4s.5-.1.7 0c.3.1.4.4.4.4s-.5-.1-.8.1c-.3.1-.3.3-.3.3s.2-.3.8.1c-.4.5-.9 1.6-.8 2.6 0 .1 0 .3.1.4h-.1l.1.1s0 .1.1.1c.2-.3.5-.5.9-.5zm6.7-8.4h-1c.4-.1.7-.1 1 0zM52.6 28.6c-.5.1-1.8.2-2.5-.1l-1.8-.6c-.8-.4-1.4-1-1.8-1.8l-.8-1.5c-.2-.1-.4-.1-.5-.2l1.7 3.2h.2l-1.5 1.8s.1 0 .4.1c.9.1 3.5.5 5 .3.5-.1.8-.2 1.2-.2 1-.2 1.3-.5 1.3-.5l.4-.7c-.6.1-1 .2-1.3.2z"/><path class="st2" d="M53.8 13.5c-.1 0-.4-.2-.5-.2-.3-.1-.4-.1-.7-.3-.2.2-.3.1-.4-.1-.2.2-.3.2-.4 0h-.1c-.1.1-.2.2-.3.2-.1 0-.2-.2-.2-.2-.1-.1-.2.1-.3 0h-.1c-.1.2-.2 0-.3 0-.1 0-.2.1-.3.1-.1 0-.1-.1-.2-.2h-.2c-.1 0-.3 0-.4-.1h-.1c-.2.2-.5 0-.7 0 0 0-.1-.1-.2-.1l-.1.1c-.1 0-.1-.1-.2-.1s-.1.1-.1.1c-.2 0-.4-.1-.6 0-.1.1 0 .2-.2.2-.1 0-.1-.3-.3 0-.1-.1-.4-.1-.5-.1l.5 3.5c1.1 0 2.9 0 4.6.1 1.9.1 3.3.2 4.1.3l-.5-1.6c-.1-.5-.4-.9-.7-1.2l-.4-.4h-.2zM53.4 21.8v.2l-.5-2.4s-.6-.2-.5.1c0 0 .2 1 .6 1.6l.4.7v.1l-.5 1-2.2-.2c-.3 0-.5-.3-.5-.6 0 0 0-.6.1-.8.1-.1.5-.4.5-.4l-.4-1.4-5.3.1-.2.4s1.9 2.4 2.8 4.1c.5 0 .8.4.8.8 0 .1 0 .2-.1.4.3.1.8-.1 1.3-.3.7-.2 2.9.3 3 .3.3.1-3.1.5-2.9 1.2.1.7 2.5 1.9 2.7 2 .3 0 .7-.1 1.2-.1.3 0 .6-.4.6-.7 0-.5.1-1.2.3-1.8.2-.7 1.9-3.9 1.7-6.2l-3.5-.1.6 2zm-3.5 3.1l-.9.2c0-.2.4-.5.7-.6.3-.1 3.3 0 3.7.1.4.1.6.4.5.4-.1 0-.2 0-.5-.2-.2-.1-3.2 0-3.5.1z"/><path class="st3" d="M53.4 22zM45.1 19.8l5.3-.1.4 1.4s-.4.2-.5.4c-.1.2-.1.8-.1.8 0 .3.2.6.5.6l2.2.2.5-1c-.1.2-.5.1-.8.1-.3 0-.6-.3-.6-.6l-.2-2.1c-1.5 0-2.9-.1-3.4-.1-1.1 0-1.9-.2-1.9-.2l-3.1.1v.1l-.1.8 2.2 4.1c.6.2 1.1.4 1.5.5.1-.3.4-.5.8-.5-1-1.6-2.8-4.1-2.8-4.1l.1-.4zM55.6 19.6l-2.7-.1v.2l3.5.1v-.3zM48.3 27.9l1.8.6c.7.2 2 .2 2.5.1-.2-.1-2.5-1.3-2.7-2-.2-.7 3.2-1.1 2.9-1.2-.1-.1-2.3-.6-3-.3-.5.2-1 .4-1.3.3-.1.3-.4.4-.7.4-.4 0-.8-.3-.8-.7-.3-.1-.7-.2-1.2-.3l.8 1.5c.3.7.9 1.3 1.7 1.6zM45.8 16.3h1l-.5-3.5c-.1 0-.1.1-.2.1s-.2-.1-.3-.1c-.2.1-.1.2-.2.3 0 0-.2 0-.2.1-.1.1-.1.2-.2.2H45c0 .1-.1.2-.1.4 0 0-.1 0-.1-.1l-.3.4-.5 2.4h-.1l1.9-.2z"/><path class="st5" d="M47 27.7h-.2l-1.7-3.2c-.5-.2-1-.4-1.6-.7-.9-.5-1.6-1.1-2.3-1.8l1.8 3.2c.1-.2.2-.3.2-.3l.2.3s-.1.1-.2.3l.3.6c.2-.3.3-.6.3-.6l.2.3-.4.6 1.7 3.1 1.7-1.8zM43.9 16.6h-.2l.2-3.4s-2.9 2-4.1 3.5c.3 0 .6.2.9.4l3.2-.5zM44.9 23.2l-1.6-3 1.6 3zM42.8 20.1v-.9h.5v-.1h-1.9c0 .7-.2 1.3-.5 1.7.7.8 1.7 1.8 2.9 2.4.4.2.8.4 1.1.5l-2.1-3.6z"/><path class="st4" d="M40.6 21.3c-.1-.1-.2-.3-.3-.4-.3.5-.8.8-1.3.8h-.2H39.6c.3 0 .6-.1.8-.3.1 0 .2-.1.2-.1z"/><path class="st6" d="M40.3 20.9c.1.1.2.2.3.4.2.2.4.5.7.7.6.7 1.4 1.3 2.3 1.8.6.3 1.1.5 1.6.7.2.1.4.1.5.2.5.2.9.3 1.2.3 0 .4.4.7.8.7.3 0 .6-.2.7-.4.1-.1.1-.2.1-.4 0-.4-.4-.8-.8-.8-.3 0-.6.2-.8.5-.4-.1-.9-.2-1.5-.5-.2-.1-.4-.1-.6-.2-.4-.2-.7-.3-1.1-.5-1.1-.6-2.1-1.6-2.9-2.4-.1-.2-.3-.3-.4-.4.2-.4.3-.9.3-1.4 0-1.4-.8-2.6-1.8-2.6-.4 0-.7.2-1 .4-.5.5-.8 1.3-.8 2.2 0 1.4.7 2.4 1.6 2.6h.2c.6-.1 1.1-.4 1.4-.9z"/><path class="st4" d="M53.9 25c.1 0-.1-.3-.5-.4-.4-.1-3.4-.2-3.7-.1-.3.1-.8.4-.7.6l.9-.2c.4-.1 3.3-.1 3.6 0 .2.1.4.1.4.1z"/><path class="st2" d="M51.9 21.6c0 .3.3.6.6.6s.7.1.8-.1V22l-.3-.7c-.4-.7-.6-1.6-.6-1.6-.1-.3.5-.1.5-.1l.5 2.4v-.2l-.5-2.3h-1.2l.2 2.1z"/><path class="st4" d="M46.8 16.3h-1l.6 2.9s.7.1 1.9.2c.5 0 7.3.2 7.3.2l1-2.7s-.3-.1-1.1-.2-2.2-.3-4.1-.3c-1.7-.1-3.5-.1-4.6-.1z"/><path class="st6" d="M43.3 19.2l3.1-.1-.6-2.9-5.6.8s.4.4.5 1.1c.2.7 0 1.1 0 1.1h2.6zM55.6 19.6l1.2-.1.4-2.3-.6-.3z"/><path class="st4" d="M43.2 20.1l.1-.8-.5-.1v.9l2.1 3.8c.2.1.4.2.6.2l-2.3-4z"/><path class="st5" d="M43.8 29c-.2.2-.4-.1-.4-.1v-.2h-.3v.1c-.2.2-.3 0-.4-.1h-.1l-.2.2-.8 2.9 1.9.4.1-3 .5.9-.1-1.4h-.3c0 .2.1.3.1.3z"/><path class="st4" d="M43.7 29.2l-.2 3.1.5-.1.2-2.1zM43.1 28.8s0-.1 0 0c-.1-.3-.4-1.1-.3-1.9.1-.5.3-1 .5-1.3.1-.2.2-.3.2-.3l-.2-.3s-.1.1-.2.3c-.2.3-.5.9-.6 1.4-.2 1 .1 2 .1 2v.1c.1 0 .3.1.5 0zM44 25.5s-.2.3-.3.6c-.1.3-.3.6-.3.9-.1.7 0 1.3.1 1.6v.2s.2.3.4.1c0 0 0-.1-.1-.3-.1-.3-.2-.8-.2-1.4 0-.3.1-.6.3-.8.2-.4.4-.6.4-.6l-.3-.3z"/><path class="st2" d="M51.7 32.3c-.1-.5-.2-1.8-.2-1.8s-.9 1.1-1.4 1.5c-.5.5-3-1.5-3-1.5s.9 2.1 1.8 3c-.3-.1-.7-.1-.9-.3-.4-.2-1.9-2.7-1.9-2.7-.1-.1-.1-.5-.2-.9-.2 0-.4-.1-.4-.1l-.3-.5c0 .3-.1.5-.1.7-.2.9.4 4.3.4 4.3s1.4.2 2.2.3c1.5.2 3.2-.4 3.6-.6h.2c.1 0 .1-.1.2-.1.8-.4.9-1.2.9-1.2l-.4-1.8-.5 1.7z"/><path class="st5" d="M35.7 96.5l-.3 4.7 5.1.2c.1-.4.9-4.2.7-5.7l-4.2-.6-1.3 1.4zM38.5 77.4c-.8 1.7-1.4 3.9-1.5 6 0 1.5.1 4.7.1 7.7l1.2.2.2-1.3 2.7.6-.4 1.3.8.2c.4-1.6.8-3.6 1.1-5.5l-4.8-.7.6-8.5zM35.7 102.3c0 .2 0 .4-.1.6-.6 1.6-.9 2.3-1 2.9-.1.5 0 2.8.1 5.7l3.6.6-1 9.5-2-.1 3.7.3c.2-2.2 1.2-12 1.4-14.2.2-2.5-.9-5.2-.9-5.2l-3.7-.2-.1.1z"/><path class="st5" d="M40.9 90.7l-2.3-.5-.2 1 2.2.5zM40.5 101.3l-.9 1.3c0-.1.8-1.1.9-1.3zM37.2 121.4l1-9.2-3.4-.5v.1c.2 3.2.4 6.9.6 9.6h1.8zM41.1 95.5l.1.1c0-.1-.1-.1-.1-.1zM41.6 92l-.3.2c.1-.1.3-.1.3-.2zM37 91.7h.1zM42 74.5c-.3-.6-.8-1-1.3-1.1 0 0-1.1 1.5-2 3.7v.1l-.5 8.4 4.6.7v.1c.5-2.7.9-5.1.9-5.8V80c-.3-2-1.7-5.5-1.7-5.5z"/><path class="st4" d="M35.4 121.4c-.2-2.7-.4-6.4-.6-9.6l-1 1.7 1 7.9h.6zM35.6 91.4l.1-9.7-3.8-.8.7 11.5zM35.4 121.6h-.3z"/><path class="st4" d="M40.4 95l-3.4-.6-4.8 1.6-.3.8h-.1v1.3l3.6-1.1.1.2-3.7 1.1v-.1c0 .2 0 .5.1.7v-.1l3.5-.2v.2l-3.5.2c0 .4.1.7.2 1v-.1l3.2.4v.2l-3.2-.4c0 .1.1.1.1.2l.3.9c-.7 2.3-2.5 6.1-2.5 6.1l3.2 18.5.1-4.3 1.1.1-1-8.1 1.2-1.9c-.1-2.9-.2-5.2-.1-5.7.2-.7.5-1.3 1-2.9.1-.2.1-.4.1-.6l.2.1 3.7.2.9-1.3-5.1-.2.3-4.7 1.3-1.3 4.2.5-.3-.7h-.4z"/><path class="st4" d="M35.6 97.1l-.1-.1-3.6 1v.2zM35.4 98.8v-.2l-3.5.2v.2zM35.4 100.4v-.1l-3.2-.4-.1.2z"/><path class="st6" d="M40.5 125.8l1.2.8 4.3-.1-.5-.8zM36.6 123.4l2.1 1.3 4.7-.3-1-.3-1.1-1v.2zM38.9 124.9l1.4.8 5.1-.1-.4-.8-1.2-.3v.1zM35.1 121.6h-.6v-.1l-1.1-.1 2.9 1.8 5-.1-1.2-1.1z"/><path class="st4" d="M35.9 124.5c0-.7-.4-1.4-1-1.4h-.4-.1.1c.6 0 1 .6 1 1.4 0 .7-.5 1.3-1 1.3h-.1.4c.6 0 1-.6 1.1-1.3z"/><path class="st6" d="M35.5 124.5c0-.7-.4-1.4-1-1.4h-.1c-.5.1-.9.6-.9 1.3 0 .7.4 1.3.9 1.4h.1c.5 0 1-.6 1-1.3z"/><path class="st4" d="M41.5 128.7h-.1l-1.5-.5-.4-.1v-.1l-1.4-.5-4.8-1.7 1.1 1.9 2 .5.8-.4.6.7 3.7.8 4.1-.2v-.7z"/><path class="st2" d="M40.9 93s-1.3-.3-2.4-.4c-1.1-.1-2.6-.1-2.8.4-.3.5.6 1.6.6 1.6l.7-.2 3.5.5.6-2.6-.2.7zM41 92.4l-4.2-.7 4.2.7z"/><path class="st4" d="M40.7 91.9l-2.5-.5v-.1l-1.2-.2c0-3-.1-6.2-.1-7.7.1-2.1.7-4.2 1.5-6v-.2l-1.7-4.6.2-.1 1.7 4.5c1-2.2 2-3.7 2-3.7L40 73l-5.6-1-1.6 2.8C31.6 77 30 79.7 29.9 80c-.2.4 1.2 9.8 1.1 12.9 0 .6.5.3.5.3l5.1-1.5H36.9l4 .7.6-.4-.8-.1zm-8.3.7l-.7-11.9 4.1.8-.1 10.1-3.3 1z"/><path class="st3" d="M36.3 94.7s-.9-1.1-.6-1.6c.3-.5 1.7-.5 2.8-.4 1.1.1 2.4.4 2.4.4l.2-.6-4.3-.7-5.1 1.5.6 2.8 4-1.4z"/><path class="st4" d="M35.1 121.6l2.3.1 1-9.5-3.7-.6-1.2 1.9 1 8.2.6-.1zm-1.4-8.2l1.1-1.7 3.4.5-1 9.2-2.5-.1-1-7.9zM35.9 81.5l-4.1-.8.7 11.9 3.4-1.1v-10zm-.2.2l-.1 9.8-3 .9-.7-11.5 3.8.8z"/><path class="st5" d="M18.2 36.9c0 .2-1.1 3.9 1.9 4.8 2.9.9 4.4-1.2 5-2.6.5-1.1.5-2.2.5-2.2v-.1l2.4.2 8.7-1.3-1-.6c-1.2-.8-3.2-2-3.4-2.2 0 0-.1-.1-.2-.1-1.2-.7-7.1-3.2-11.3-.5-1.7 1.1-2.6 2.8-3.2 4.5h.6v.1zm.7-.6c.5-1.6 1.6-2.6 2.6-2.4h.1c.1-.1.3-.1.4-.1.6-.1 1.1.1 1.5.6.7.8.1 5-.7 5.9-.3.4-.9.6-1.4.6H21c-.7-.1-1.2-.6-1.4-1.3v-.1l-.1-.1c-.8-.4-1-1.7-.6-3.1z"/><path class="st5" d="M23 37.6c-.5 1.6-1.6 2.6-2.6 2.4-.1 0-.5-.1-.6-.2.2.5.6.9 1.2 1 .6.1 1.3-.1 1.7-.5.8-1 1.3-5 .7-5.7-.3-.3-.7-.5-1.1-.5h-.2c-.1 0-.1 0-.2.1h.1c.1 0 .2.1.2.1.8.2 1.3 1.7.8 3.3z"/><path class="st5" d="M24 44.7s3.1-4.2 3.3-4.7c.2-.5.7-2.9.7-2.9v.2l-2.2-.2c0 .3-.1 1.2-.5 2.2-.5 1.2-1.7 2.9-3.8 2.9-.4 0-.9-.1-1.4-.2-2.9-.9-2.2-4.2-2.1-4.9h-.4V37c-1.1 3.6-.6 7.5-.6 7.5l7 .2zm-4.9-1.5h2.8v1.1l-2.8-.1v-1z"/><path class="st5" d="M21.8 44.1v-.7h-2.5v.6z"/><path class="st4" d="M52.6 48.7v-.2c0-1.7.1-5 0-5.3-.1-.5-1-3.6-1-3.6s-.6.2-1.1.1c0 0 1.6 3.8 1.6 4.2 0 .3-.3 2.9-.4 4.5h.1v.2h-.2l-.1 1 1.1.1v-1zM43.1 51l.7 1.4h.8l-.7-1.4zM42.9 52.8l-.8-2-1.5-.3 1 2.3h1.3zm-2-2.1l1.1.2.7 1.7h-.9l-.9-1.9z"/><path class="st4" d="M43.7 52.6h1.1l-.8-1.7-1.3-.1 1 1.8zm.9-.2h-.7l-.8-1.4.9.1.6 1.3zM46.5 52.4L46 51h-1.2l.5 1.4h1.2zm-1.4-1.2h.8l.4 1.1h-.7l-.5-1.1zM55.3 52.2l1 .2.8-1.9h-1.4l-.4 1.7zm.9-.1l-.7-.1.4-1.3h.9l-.6 1.4zM58.7 50.5h-1.2l-.7 1.9h1.1l.8-1.9zm-.9 1.7h-.7l.6-1.6h.8l-.7 1.6zM40.2 33.7l.2 1.2-2 1 7.1 1.8.8-1.1-.2-1-5.9-1.9zm5.8 2.8l-.7 1-6.4-1.7 1.6-.8-.1-1 5.5 1.7.1.8zM53.2 33.2l-.5.6.6 1.2 4.4 1.3-1.2-2.6c-.2-.1-.3-.1-.5-.2l-1.8-.2-.4-.5h-.1.1l-.1-.2-.5.6zm3.1.5l1.1 2.3-4-1.2-.5-1 .8-1 .4.6 2.2.3zM46.9 37.9l.3-1.4H47l-.2 1.4zM49.1 38.3h.2l-.7-1.8-.1.1zM51.5 38.4l.2-.1-1.7-2-.1.1zM51.6 35.8l-.1.1 3.1 1.6.2-.1-3.2-1.7zM40.7 47.1l4.1-2.4v-.6l-4.2 2.1.1.9zm3.9-2.7v.2l-3.7 2.2-.1-.5 3.8-1.9zM57.3 43.6l-.3.7 2.7 2.1.6-.5-3-2.3zm2.4 2.6l-2.5-1.9.2-.3 2.6 2-.3.2zM22 34.1h.2c.4 0 .8.2 1.1.5.6.7.1 4.7-.7 5.7-.4.5-1 .7-1.7.5-.6-.1-1-.5-1.2-1h-.1c-.1 0-.1-.1-.2-.2v.1c.2.7.7 1.2 1.4 1.3h.4c.6 0 1.1-.2 1.4-.6.8-1 1.4-5.1.7-5.9-.4-.4-.9-.6-1.5-.6-.1 0-.3.1-.4.1.1 0 .2.1.2.1h.4z"/><path class="st6" d="M19.8 39.8c.2.1.5.1.6.2 1 .3 2.1-.8 2.6-2.4.5-1.6 0-3.1-.9-3.3 0 0-.1 0-.2-.1.7.5 1 1.8.6 3.1-.6 1.6-1.7 2.6-2.7 2.5l-.3-.3.1.1s0 .1.2.2c-.1-.1 0 0 0 0z"/><path class="st4" d="M19.4 39.5c.1.1.2.2.4.2 1 .3 2.1-.8 2.6-2.4.4-1.4.1-2.6-.6-3.1h-.1c-.1 0-.2-.1-.2-.1h-.1c-1-.3-2.1.8-2.6 2.4-.3 1.2-.1 2.5.6 3z"/><path class="st5" d="M53.9 32.7l.1.1-.3-.1z"/><path class="st5" d="M56.5 33.7c.7.3 1.6.6 2.4 1l1.2.6s.1.1.3.2c1 .6 1.9 1.1 2.5 1.8.9.9.9 1.1.9 1.1l5-1s-.7-4-3.9-5.9c-1.4-.8-2.6-1.2-4.4-1.6-2.5-.4-5.1.8-6.5 2.9.4.1 1.1.4 2 .7.2 0 .3.1.5.2zM66.6 67.1l-6.2.4.2 3.2h2.9c1.3 0 3.4-.2 4-.3h.2l.7-5.2-.4-.1-1.4 2z"/><path class="st4" d="M61.4 67.1l-1 .5 6.2-.5 1.4-2-.4-.3-1.4 2zM40.7 91.9l.4-1.4-2.6-.5-.2 1.4 2.4.5zm-2.1-1.7l2.3.5-.3 1-2.2-.4.2-1.1zM55.2 91.1l.1-1.2-2.3-.3V91l2.2.1zm-2.1-1.3l2 .2-.1.9-1.9-.1v-1zM21.9 44.3v-1.1h-2.8v1l2.8.1zm-2.6-.9h2.4v.7l-2.4-.1v-.6zM18 37c-.2.7-.8 4.1 2.1 4.9.5.1 1 .2 1.4.2 2.1 0 3.3-1.7 3.8-2.9.4-1 .5-1.9.5-2.2l2.2.2V37l-2.4-.2v.2s0 1.1-.5 2.2c-.6 1.3-2.1 3.5-5 2.6-3-.9-2-4.7-1.9-4.8v-.1h-.7v.1h.5zM40.2 48.4c.4.5 2 .7 3.9.7 3 0 6.7-.5 7.5-.6h.2v-.2h-.1c-1.2.1-10.2 1.3-11.3-.1-1.2-1.4-3.6-12.4-3.6-12.5h-.2v.1c.2 1.1 2.4 11.2 3.6 12.6zM61.2 46.1c0 .4-.8 1.7-1.9 2.2-1 .4-6.5.3-6.7.3v.2H55c1.7 0 3.8-.1 4.4-.3 1-.5 2-1.9 2-2.4 0-.4-1.8-10.1-1.8-10.6l-.2.1c0 .1 1.8 10.1 1.8 10.5zM68 48.5c0-.3.1-2.3 0-5.1-.1-2.6-.6-3.7-.7-3.9l.7-.6v-.2l-1 .7v.1s.6.9.7 3.9c.1 2.5 0 4.3 0 4.9-.2-.2-.4-.3-.6-.5-.4-.2-.8-.4-1.3-.3-.2 0-.4 0-.5.1-1.2.3-2.3 1.1-3.3 2-.1-.4-.5-1.3-.9-2.4l-.1.3.3.9-.4-.8-.1.2 1 1.9c-1.1 1.1-1.9 2.3-2 2.4l.1.2c.1-.2 2.6-3.8 5.3-4.5.2 0 .3-.1.5-.1.4 0 .8.1 1.2.3 1.5.9 2 3.4 2 3.4h.1c.3-.1-.1-1.8-1-2.9zM45.3 58.5c.2-.1 3.6-2.4 6.8-2 3.2.4 3.9 1.5 4 1.5v-.2s-.6-1.1-4-1.5c-3.3-.4-6.7 1.9-6.9 2l.1.2zM45.8 62c.2-.1 2.8-2.1 5.2-2.1h.1c2.6 0 4.1 1.6 4.2 1.6l.1-.2s-1.6-1.6-4.2-1.6h-.1c-2.5 0-5.1 1.9-5.3 2.1v.2zM46.2 65.2s2.4-2 4.8-2h.2c2.5.1 3.1 1.6 3.1 1.6l.1-.2c0-.1-.5-1.4-3.2-1.5-2.6-.1-5.1 2-5.1 2l.1.1zM53.6 67.5c-.1-.1-.8-1.4-2.8-1.6h-.2c-2 0-4.1 1.8-4.2 1.9v.2s2.3-1.9 4.2-1.9h.2c1.9.2 2.7 1.6 2.8 1.6v-.2zM46.4 71.3s1.9-2 3.6-2c1.7 0 2.6 1.5 2.6 1.5l.1-.2s-.9-1.5-2.7-1.5c-1.8 0-3.5 1.9-3.6 2v.2zM46.4 73.3s1.5-1.5 3.3-1.5h.1c1.8 0 2.2 1.2 2.3 1.3L52 73s-.4-1.2-2.3-1.3h-.1c-1.8 0-3.1 1.3-3.2 1.4v.2zM36.9 54.7v-1.6l2.8-.9-.1-1.7h-.2l.1 1.6-2.8.9v1.6l-6.9 1.5.1.2z"/><path class="st4" d="M36 53.4l-.3-3.8h.1-.1v-.2l1.5-.5s-.1-1.2-.9-3.6c-.8-2.4-2.3-6.8-2.3-6.8.2-.8.6-1.2 1-1.5l-1.5.9c.1.5.2.9.3 1.4l-4.3.7v.1s.1 2-.3 4.5c-.4 2.3-.7 3.8-.8 4.2-1.5-1.3-3.2-2.6-4.3-3-.4-.1-.8-.1-1.3-.1-.6.1-1.3.3-1.9.6 0-.1.1-.4.3-1.1h-.3l-.2 1.2c-1.3.6-2.3 1.5-2.5 1.6l-.1.3c.2-.2 2.6-2.1 4.7-2.4.4-.1.9-.1 1.2 0 2.3.6 7 5.5 7.1 5.6v-.1c-.1.1-.1.2-.2.3l4.6-2.3.2 3.6-6 2 .1.2 6.2-1.8zm-4.8-1.9c-.1-.1-1.2-1.3-2.6-2.5 0-.2.4-1.8.8-4.4.4-2.3.3-4.1.3-4.5l3.9-.8c.7 4.7-1 9.4-2.4 12.2zM38.1 85.6l.6-8.4-1.7-4.6h-.2l1.7 4.6-.6 8.6 4.8.7.1-.2zM52.2 77.1l-.1.7.5 8.8 3.9.4v-.2l-3.7-.4-.5-9.3zM36.3 123.2l-2.9-1.8-.1 4.3 4.8 1.8 1.4.5.3.1 1.5.6 4.2-.3.5-1.7v-.2l-4.4.1-1.2-.8 5-.1v-.2l-5.2.1v.1l-1.4-.9 4.9-.3v-.2l-5.1.3-2.1-1.3 4.8-.1v-.2l-5 .2zm-1.5 2.6h-.4c-.5-.1-.9-.7-.9-1.4s.4-1.2.9-1.3h.5c.6 0 1 .6 1 1.4-.1.7-.5 1.3-1.1 1.3zM52.5 120.9l-2.4-1.4h2.5l.8-9-3.6-.3-2.2 2.1 1.3 10 .9-2.2-.5 1.7c.1-.2.3-.3.5-.3h.5c.6 0 1 .5 1 1.2s-.5 1.3-1 1.4h-.4c-.4 0-.7-.4-.8-.9l-.3 1 2.4.6.2.1 5.5 1.4 4.2-.7.5-1.7v-.2l-3.7.3-1-.6 4.2-.4v-.2l-4.4.4-1.1-.6 3.9-.5v-.2l-4.1.5-2.2-1.2 4-.1v-.2h-4.7zm-3.5.7l-1.2-9.3 2.1-2 3.3.3-.8 8.8h-2.6l-.8 2.2zM64.5 72.1c-1.7.1-3.3-.5-3.4-.5l.1.2s1.3.5 2.9.5h.4c1.7-.1 2.4-.5 2.8-.6v-.2c-.2 0-1.2.5-2.8.6zM61.5 72.9v.2s1.2.5 2.6.5h.4c1.5-.1 2.2-.5 2.5-.6v-.2c-.2.1-1.1.5-2.6.6-1.4.1-2.9-.5-2.9-.5zM64.6 74.4c-1.4.1-2.9-.5-2.9-.5v.2s1.2.5 2.5.5h.4c1.4-.1 2.1-.5 2.4-.6v-.2c-.2 0-1 .4-2.4.6zM21.3 72.7s1.9.6 3.6.6h.5c1.8-.2 3.1-1.2 3.1-1.2v-.2c-.1.1-1.4 1.1-3.2 1.3-1.8.2-4.1-.6-4.2-.6l.2.1zM21.9 74.8c.1 0 1.7.6 3.2.6h.5c1.6-.2 2.8-1.2 2.8-1.2V74c-.1.1-1.3 1.1-2.9 1.3-1.6.2-3.7-.6-3.7-.6l.1.1zM25.7 77.3c-1.4.2-3.3-.6-3.3-.6l.1.2s1.5.6 2.8.6h.4c1.4-.2 2.4-1.1 2.5-1.2v-.2s-1.1 1-2.5 1.2z"/><path class="st6" d="M22.8 79.3c.1 0 .1.1.1.1h.1c.1 0 .1 0 .2-.1s0-.2 0-.3l-.1-.1c-.1-.1-.3-.2-.6-.5-1-.8-2.8-2.7-3.1-4.8-.2-1.6.5-2.9 1.2-3.8l.3-.3c.2.2.4.3.7.3.6 0 1-.5 1-1.2s-.5-1.2-1-1.2c-.6 0-1 .5-1 1.2 0 .2 0 .4.1.6l-.2.2c-.8.9-1.6 2.3-1.4 4.2.3 2.4 2.3 4.3 3.3 5.1.1.4.3.5.4.6z"/></g></svg>